Coordinates
version=1
nRows=9
nColumns=24
inDegrees=yes

Units are S.I. units (second, meters, Newtons, ...)
Angles are in degrees.

endheader
time	pelvis_tilt	pelvis_list	pelvis_rotation	pelvis_tx	pelvis_ty	pelvis_tz	hip_flexion_r	hip_adduction_r	hip_rotation_r	knee_angle_r	ankle_angle_r	subtalar_angle_r	mtp_angle_r	hip_flexion_l	hip_adduction_l	hip_rotation_l	knee_angle_l	ankle_angle_l	subtalar_angle_l	mtp_angle_l	lumbar_extension	lumbar_bending	lumbar_rotation
      1.02916667	     -1.76757313	     -1.90228424	      0.20879743	     -0.12158917	      1.02165767	      0.32071413	    -11.37372578	      7.96226884	     -0.74213707	     -6.55466008	     11.29492805	     -2.52244827	      1.28594387	     18.33008157	     -1.29226562	     -3.46453207	      9.05576439	      3.15849080	     -0.30252105	     -4.20528965	     -4.17467101	      0.15444155	      6.22716616
      1.03333333	     -1.73958932	     -1.80457545	      0.18418104	     -0.11618921	      1.02096356	      0.32034778	    -11.54069338	      7.82948569	     -0.74765512	     -6.94771400	     11.46965457	     -2.57131556	      1.29748898	     18.37441369	     -1.07111122	     -3.29121933	      8.65400921	      3.22558911	     -0.25128585	     -4.16824693	     -4.19933954	      0.04888847	      6.24580600
      1.03750000	     -1.73204726	     -1.70507746	      0.16400298	     -0.11078234	      1.02027058	      0.31994906	    -11.64993843	      7.68592167	     -0.82681845	     -7.41859361	     11.76244333	     -2.31749795	      1.33538766	     18.47586555	     -0.84631561	     -3.21583002	      8.12098518	      3.35981477	      0.00114237	     -4.02492377	     -4.19930348	     -0.07742353	      6.29036094
      1.04166667	     -1.70149518	     -1.60178695	      0.14729935	     -0.10536048	      1.01962782	      0.31958862	    -11.77811949	      7.55276216	     -0.83274833	     -7.89222362	     11.87876095	     -2.40980477	      1.34707452	     18.53131416	     -0.62309255	     -3.05521135	      7.58745133	      3.34453702	      0.02821403	     -3.97958200	     -4.24179075	     -0.17898946	      6.30892894
      1.04583333	     -1.68820453	     -1.47990421	      0.13459136	     -0.09991236	      1.01898311	      0.31919825	    -11.84398531	      7.38846998	     -0.94642492	     -8.46553320	     12.15489951	     -2.16055895	      1.41522112	     18.64085288	     -0.38003889	     -3.03375581	      6.93126622	      3.40254765	      0.31095261	     -3.69340646	     -4.24951733	     -0.32306296	      6.35049494
      1.05000000	     -1.62641304	     -1.35870520	      0.13045054	     -0.09441636	      1.01843856	      0.31885356	    -11.98300524	      7.24562077	     -0.92416472	     -8.98806259	     12.24247431	     -2.29313842	      1.43082157	     18.65869346	     -0.14458176	     -2.85963452	      6.31891198	      3.32370155	      0.31204875	     -3.63029966	     -4.30905340	     -0.46591344	      6.36719743
      1.05416667	     -1.59475672	     -1.21688019	      0.11840194	     -0.08889964	      1.01786186	      0.31849813	    -12.03151775	      7.06510534	     -1.02290842	     -9.64178331	     12.48944535	     -2.08323940	      1.56985445	     18.73096961	      0.10866001	     -2.80387845	      5.62856508	      3.23876115	      0.46087780	     -3.07565709	     -4.32885131	     -0.64961721	      6.41477934
      1.05833333	     -1.53101665	     -1.09950424	      0.12297234	     -0.08336332	      1.01735257	      0.31817680	    -12.13161661	      6.93668637	     -0.97538907	    -10.24069161	     12.44135337	     -2.33431968	      2.40188355	     18.73184882	      0.33209261	     -2.55303920	      5.00144955	      2.95943943	      0.26083764	      0.14345622	     -4.38418338	     -0.80982581	      6.41740312
      1.06250000	     -1.45053527	     -0.96377276	      0.12554495	     -0.07779124	      1.01690988	      0.31783938	    -12.22695487	      6.78376997	     -0.96344780	    -10.89119546	     12.48467597	     -2.47342945	      2.41066977	     18.73063315	      0.57209389	     -2.41838709	      4.31074520	      2.74040729	      0.25749544	      0.15546290	     -4.46417228	     -0.95515351	      6.43507234
